<svg width="1322.67" height="261.333" viewBox="0 0 992 196" xmlns="http://www.w3.org/2000/svg" xmlns:xlink="http://www.w3.org/1999/xlink" overflow="hidden"><g id="#0091c4ff"><path d="M53.66 11.66C55.93 7.99 58.14 4.28 60.65 0.78 80.82 33.17 100.91 65.6 121 98.04 100.96 130.54 80.8 162.97 60.66 195.41 57.97 191.68 55.63 187.72 53.22 183.8 38.29 159.72 23.38 135.64 8.44 111.57 5.7 107.18 3.09 102.68 0 98.52L0 97.62C3.26 93.22 5.99 88.48 8.89 83.85 23.82 59.79 38.74 35.73 53.66 11.66M40.89 58.27C40.57 71.61 40.8 84.95 40.77 98.29 34.21 98.65 27.64 98.43 21.07 98.41 33.6 111.4 46.65 123.87 59.32 136.71 60.36 138.47 61.77 136.56 62.68 135.74 74.98 123.18 87.72 111.06 99.92 98.41 93.36 98.43 86.78 98.64 80.22 98.3 80.18 84.96 80.43 71.61 80.1 58.28 67.03 58.32 53.96 58.32 40.89 58.27Z" fill="#0091C4"/><path d="M352.29 49.1C352.09 46.13 355.76 45.74 357.95 45.53 362.09 45.59 367.07 44.55 370.46 47.56 371.13 59.73 370.4 71.97 370.81 84.17 374.88 80.8 379.23 77.49 384.46 76.17 392.65 74.17 402.12 75.59 408.34 81.64 415.5 88.73 417.66 99.24 417.95 108.97 418.17 119.61 416.53 131.1 409.57 139.58 402.69 148.12 390.1 150.64 380.08 146.72 375.32 144.81 371.74 141.04 368.12 137.57 368.02 140.5 368.02 143.45 367.51 146.35 362.96 147.39 357.98 148.14 353.52 146.39 351.87 145.69 352.4 143.47 352.21 142.06 352.29 111.07 352.13 80.08 352.29 49.1M382.33 91.48C377.54 93.13 373.72 97.02 370.95 101.15 370.52 108.35 370.57 115.65 370.92 122.85 373.11 126 375.93 128.74 379.08 130.92 382.03 133.1 386.02 133.06 389.45 132.3 396.39 129.28 398.52 121 398.79 114.1 398.93 107.07 398.63 98.95 393.28 93.7 390.48 90.71 386.05 90.87 382.33 91.48Z" fill="#0091C4"/><path d="M141.44 52.61C146.51 52.05 151.68 52.22 156.77 52.53 158.51 52.49 158.85 54.51 159.31 55.77 165.1 79.83 170.16 104.07 176.19 128.07 181.78 104.7 187.47 81.35 193.07 57.98 193.57 55.72 194.46 52.76 197.21 52.53 201.78 52.14 206.39 52.24 210.97 52.43 213.29 52.27 214.96 54.33 215.39 56.43 221.62 80.29 227.07 104.37 233.53 128.16 238.99 104.36 244.51 80.57 249.98 56.77 250.31 54.7 251.62 52.25 254.05 52.45 258.45 52.31 262.95 51.94 267.3 52.73 269.52 54.55 268.32 57.6 267.89 59.95 260.68 87.03 253.59 114.15 246.33 141.22 245.72 144.78 242.6 147.16 239.06 147.19 233.51 147.31 227.8 147.9 222.35 146.56 219.94 146.2 219.17 143.57 218.57 141.57 213.51 121.96 208.79 102.25 203.57 82.67 203.12 83.83 202.71 85 202.39 86.19 197.91 104.81 193.55 123.47 188.97 142.06 188.34 145.81 184.46 147.36 181.05 147.3 175.83 147.22 170.47 147.91 165.36 146.56 162.62 146.08 161.91 142.99 161.21 140.73 154.14 113.54 147 86.35 139.92 59.16 139.38 56.97 138.58 53.49 141.44 52.61Z" fill="#0091C4"/><path d="M285.47 81.5C293.46 75.49 304.08 74.45 313.7 75.96 320.35 77.2 326.83 80.56 330.79 86.18 335.9 93.31 336.96 102.47 336.51 111.01 336.56 114.02 334.04 116.74 330.97 116.52 317.73 116.69 304.49 116.51 291.25 116.6 291.26 122.1 292.67 128.22 297.4 131.6 302.77 135.45 309.79 134.79 316.02 134.3 321.77 133.79 326.9 130.71 332.63 130.24 333.71 134.21 334.2 138.68 332.63 142.58 330.18 145.23 326.28 145.75 322.96 146.75 312.26 148.92 300.72 149.67 290.36 145.6 283.53 142.96 278.03 137.28 275.48 130.43 272.53 122.68 272.15 114.16 272.93 105.98 273.96 96.7 277.82 87.25 285.47 81.5M300.71 88.87C294.23 91.11 291.67 98.33 291.15 104.59 300.38 104.65 309.61 104.63 318.84 104.6 318.72 99.96 318.04 94.84 314.56 91.44 310.98 87.85 305.33 87.79 300.71 88.87Z" fill="#0091C4"/></g><g id="#000000ff"><path d="M730.23 46.03C733 45.5 735.85 45.53 738.57 46.39 738.76 79.81 738.72 113.24 738.59 146.66 736.1 147.32 733.53 147.4 731 147.01 730.61 143.37 730.63 139.71 730.7 136.05 725.63 140.63 720.36 145.55 713.58 147.35 706.67 148.31 698.97 148.21 693.11 143.89 685.41 138.54 682.16 129.01 681.28 120.05 680.3 108.99 681.2 97.03 687.53 87.55 694.53 76.95 710.11 73.63 720.99 79.99 724.28 81.89 727.03 84.54 729.88 87.02 730.21 73.36 729.56 59.68 730.23 46.03M704.43 84.7C700.44 85.71 697.12 88.56 694.91 91.95 690.78 98.48 689.81 106.5 690.01 114.08 690.38 121.76 691.48 130.2 696.99 136.04 701.73 141.24 709.87 141.72 715.99 138.88 720.91 136.5 724.87 132.56 728.45 128.5 730.51 126.56 729.84 123.54 729.99 121.01 729.77 113.39 730.25 105.75 729.78 98.15 727.48 94.02 723.53 91 719.9 88.08 715.56 84.64 709.79 83.57 704.43 84.7Z"/><path d="M514.07 52.37C516.85 52.32 519.64 52.37 522.42 52.57 522.81 68.37 522.47 84.19 522.58 100 522.71 108.15 521.91 116.57 524.53 124.44 526.39 130.24 530.59 135.38 536.24 137.82 541.14 140.2 546.72 139.85 552.01 139.67 559.27 139.36 566.14 134.88 569.37 128.37 572.36 122.75 572.82 116.25 572.81 110 572.79 92.66 572.84 75.31 572.78 57.97 572.82 56.15 572.73 54.23 573.58 52.55 576.19 52.13 578.84 52.36 581.47 52.54 581.98 71.36 581.53 90.2 581.7 109.02 581.85 118.07 580.68 127.68 575.16 135.16 568.93 144.08 557.64 148.39 547 147.78 536.88 148.36 526.2 144.17 520.24 135.77 515.24 128.93 513.69 120.27 513.62 111.97 513.52 96.98 513.61 81.99 513.59 67 513.62 62.12 513.28 57.21 514.07 52.37Z"/><path d="M836.21 60.24C838.89 59.84 841.75 59.38 844.28 60.7 845.25 66.31 844.25 72.07 844.86 77.74 851.46 77.87 858.13 77.14 864.67 78.31 864.74 80.57 866.18 84.64 862.88 85.16 856.89 85.63 850.87 85.23 844.87 85.29 844.41 98.84 844.75 112.41 844.69 125.97 844.92 130.66 845.17 136.61 849.61 139.38 854.59 142.25 859.94 138.88 865.06 138.43 864.98 140.5 865.15 142.63 864.6 144.65 861.2 148.45 855.55 147.71 850.97 147.69 845.18 147.65 839.59 143.89 837.73 138.35 835.49 131.82 836.03 124.79 835.94 118 835.89 107.1 836.05 96.19 835.86 85.29 832.32 85.29 828.75 85.63 825.25 85.05 823.32 83.57 823.66 80.54 824.66 78.61 828.05 76.84 832.17 77.98 835.87 77.73 836.05 71.9 835.74 66.06 836.21 60.24Z"/><path d="M631.69 77.81C641.25 74.95 652.73 78.05 658.55 86.44 664.91 95.49 665.51 107.18 664.76 117.85 663.82 128.04 659.84 139.1 650.55 144.49 644.58 148.27 637.18 148.21 630.43 147.34 624.79 145.74 620.36 141.64 616.05 137.87 615.73 149.61 616.25 161.36 615.77 173.09 612.96 173.5 610.1 173.6 607.35 172.81 607.11 141.27 607.11 109.7 607.35 78.15 609.81 77.45 612.36 77.5 614.87 77.89 615.23 81.56 615.25 85.25 615.25 88.94 620.01 84.33 625.07 79.5 631.69 77.81M632.56 84.85C625.84 87.29 620.35 92.51 616.23 98.22 615.55 105.45 616.18 112.74 615.93 120 616.1 123.11 615.16 126.87 617.83 129.19 622.91 134.61 628.98 140.79 637 140.6 643.17 140.86 648.69 136.85 651.57 131.6 655.95 123.68 656.46 114.23 655.51 105.4 654.69 98.64 652.72 91.28 646.99 87.01 642.93 83.81 637.38 84 632.56 84.85Z"/><path d="M763.88 82.85C770.11 78.78 777.66 77.19 785 76.73 791.91 76.77 799.65 78.04 804.51 83.47 809.22 88.75 809.71 96.25 809.68 102.99 809.57 117.52 809.85 132.05 809.53 146.58 807.26 147.04 804.67 148.06 802.56 146.57 801.43 144.09 802.1 141.15 801.8 138.49 797.02 142.32 792.05 146.55 785.78 147.51 779.52 148.04 772.69 148.34 767.19 144.77 757.27 139.02 755.89 123.74 763.65 115.66 768.3 110.76 775.1 108.71 781.59 107.7 787.98 107.01 794.43 107.43 800.85 107.17 800.97 100.76 801.67 93.19 796.76 88.22 792.22 83.59 785.15 84.06 779.23 84.61 773 85.31 768.17 89.85 762.14 91.09 761.64 88.28 761.04 84.65 763.88 82.85M782.41 114.68C777.35 115.43 771.8 117.48 769.29 122.26 766.81 127.28 767.53 134.29 772.18 137.82 776.71 141.38 783.18 141.23 788.37 139.32 793.18 137.26 797.51 133.88 800.67 129.71 801.32 124.63 800.85 119.47 800.83 114.36 794.69 114.57 788.53 114.13 782.41 114.68Z"/><path d="M891.68 80.74C902.36 74.81 917.09 75.23 926.39 83.61 933.3 90.02 935.54 99.94 935.22 109.05 935.35 111.43 933.45 113.77 930.97 113.56 915.98 113.73 900.98 113.43 885.99 113.69 886.07 122.04 887.74 131.77 895.16 136.81 903.05 141.6 913.11 141.35 921.69 138.7 925.34 137.75 928.72 135.13 932.65 135.85 932.34 138.2 933.53 141.55 930.95 142.96 922.2 147.79 911.84 148.22 902.08 147.56 893.95 146.71 886.16 142.12 881.99 135 876.68 126.05 875.99 115.16 877.19 105.04 878.41 95.47 883.06 85.69 891.68 80.74M892.79 89.79C888.29 94.06 886.52 100.28 886 106.29 899.42 106.56 912.85 106.47 926.26 106.33 926.33 99.19 924.35 91.18 917.93 87.13 910.24 82.57 899.21 83.29 892.79 89.79Z"/><path d="M963.58 89.19C967.78 84.54 971.64 78.6 978.18 77.18 982.84 75.9 987.61 77.34 992 78.94L992 85.67C987.5 87.32 982.88 83.68 978.37 85.36 974.19 86.75 971.32 90.35 968.66 93.66 966.45 96.72 963.71 99.91 963.88 103.92 963.71 118.24 964.16 132.56 963.69 146.87 960.92 147.24 958.12 147.23 955.36 146.84 955.05 123.91 955.08 100.96 955.34 78.02 957.77 77.85 960.47 76.92 962.75 78.21 964.16 81.64 963.32 85.56 963.58 89.19Z"/></g><g id="#7f7f7fff"><path d="M433.66 59.67C438.55 54.82 445.62 52.86 452.23 51.58 461.37 50.96 471.43 50.24 479.48 55.47 492.49 63.36 492.5 84.79 480.41 93.51 478.1 95.12 475.43 96.05 472.91 97.23 479.16 98.61 485.52 101.22 489.41 106.56 494.75 113.55 494.5 123.39 491.05 131.15 487.82 138.3 481.2 143.45 473.85 145.87 462.04 149.71 448.89 149.43 437.27 145.01 434.88 143.9 431.73 142.94 431.01 140.06 429.95 135.81 429.94 131.21 431.35 127.05 436.2 127.94 440.32 130.93 445.14 131.98 452.2 133.69 460.59 134.33 466.75 129.77 473.48 124.94 472.64 113.46 465.62 109.3 458.16 104.54 448.97 106.12 440.64 105.34 438.96 102.89 439.13 99.8 439.21 96.97 439.32 95.15 439.43 92.98 441.11 91.84 448.46 91.07 456.85 93.11 463.18 88.21 469.29 84.11 470.1 74.3 464.71 69.29 461.44 65.93 456.36 66.11 452.05 66.41 445.4 67.13 439.91 71.36 433.81 73.71 431.95 69.39 431.63 63.96 433.66 59.67Z" fill="#7F7F7F"/></g><g id="#ffffffff"><path d="M40.89 58.27C53.96 58.32 67.03 58.32 80.1 58.28 80.43 71.61 80.18 84.96 80.22 98.3 86.78 98.64 93.36 98.43 99.92 98.41 87.72 111.06 74.98 123.18 62.68 135.74 61.77 136.56 60.36 138.47 59.32 136.71 46.65 123.87 33.6 111.4 21.07 98.41 27.64 98.43 34.21 98.65 40.77 98.29 40.8 84.95 40.57 71.61 40.89 58.27Z" fill="#FFFFFF"/></g></svg>