<svg fill="#c600e2" width="152" height="152" viewBox="0 0 152 152" class="css-os5sxc"><path fill="currentColor" d="M76,0a76,76,0,1,0,76,76A76,76,0,0,0,76,0Zm0,150a74,74,0,1,1,74-74A74.08,74.08,0,0,1,76,150Z"></path><path fill="currentColor" d="M76,51.94a24,24,0,1,0-24-24A24,24,0,0,0,76,51.94Zm0-46a22,22,0,1,1-22,22A22,22,0,0,1,76,5.93Z"></path><path fill="currentColor" d="M76,52a24,24,0,1,0,24,24A24,24,0,0,0,76,52Z"></path><path fill="currentColor" d="M22.37,72.76A24,24,0,1,0,13.59,40,24,24,0,0,0,22.37,72.76Z"></path><polygon fill="currentColor" points="34.35 76.03 34.35 76.03 34.35 76.03 34.35 76.03"></polygon><path fill="currentColor" d="M55.16,88A24,24,0,0,0,34.35,76v2h0a22,22,0,1,1-19,33,22,22,0,0,1,19-33V76h0A24,24,0,1,0,55.16,88Z"></path><path fill="currentColor" d="M76,100.06a24,24,0,1,0,24,24A24,24,0,0,0,76,100.06Z"></path><path fill="currentColor" d="M129.63,79.24A24,24,0,1,0,138.41,112,23.91,23.91,0,0,0,129.63,79.24ZM136.68,111a22,22,0,1,1-8.05-30A22.09,22.09,0,0,1,136.68,111Z"></path><path fill="currentColor" d="M96.84,64a24,24,0,1,0,8.78-32.79A24,24,0,0,0,96.84,64Z"></path></svg>
