<svg width="170" height="48" viewBox="0 0 170 48" fill="none" xmlns="http://www.w3.org/2000/svg"><path d="M0.70554 23.9997C0.70554 36.8648 11.1345 47.2938 23.9996 47.2938C36.8648 47.2938 47.2945 36.8647 47.2945 23.9997C47.2945 11.1346 36.8648 0.705542 23.9996 0.705542C11.1345 0.705542 0.70554 11.1345 0.70554 23.9997Z" fill="#0C0C4F" stroke="#EC796B" stroke-width="1.41108"></path><path fill-rule="evenodd" clip-rule="evenodd" d="M13.4139 18.3456L14.0063 16.5153C14.1267 16.143 14.4205 15.8533 14.7942 15.7391L16.6334 15.1735C16.888 15.0957 16.8901 14.7365 16.6376 14.6547L14.8066 14.0622C14.435 13.9418 14.1453 13.648 14.0304 13.2743L13.4655 11.4351C13.3877 11.1812 13.0285 11.1784 12.9466 11.4316L12.3542 13.262C12.2338 13.6335 11.94 13.9232 11.5663 14.0381L9.72705 14.603C9.47245 14.6815 9.4697 15.04 9.72292 15.1219L11.5539 15.7143C11.9255 15.8347 12.2152 16.1292 12.3301 16.5029L12.895 18.3415C12.9728 18.5961 13.332 18.5988 13.4139 18.3456Z" fill="#FAFAFA"></path><path fill-rule="evenodd" clip-rule="evenodd" d="M42.4855 17.2803C41.7273 16.4324 40.5438 15.955 39.3933 15.7593C38.2336 15.5712 37.0178 15.5887 35.8729 15.7921C33.5565 16.1839 31.452 17.1431 29.6166 18.3263C28.6634 18.907 27.8506 19.579 27.0085 20.2633C26.6027 20.6094 26.2328 20.978 25.8475 21.3412L24.7948 22.3887C23.6509 23.5843 22.5234 24.6734 21.4326 25.5761C20.3373 26.4746 19.3133 27.157 18.3041 27.6335C17.2956 28.1126 16.2165 28.3943 14.8099 28.4394C13.4158 28.4886 11.7663 28.2369 10.0018 27.8216C8.22797 27.4081 6.36522 26.8187 4.28364 26.3116C5.00995 28.3265 6.10369 30.1072 7.50793 31.7349C8.92863 33.3344 10.7027 34.7922 12.9816 35.7509C15.2277 36.731 18.0503 37.0827 20.6895 36.552C23.3357 36.0427 25.6579 34.8182 27.5349 33.402C29.4168 31.9714 30.9393 30.3417 32.2228 28.6475C32.5772 28.1794 32.7646 27.9174 33.0209 27.5516L33.7296 26.5018C34.2222 25.8525 34.6704 25.1132 35.158 24.4698C36.1137 23.1224 37.0559 21.7766 38.1509 20.5366C38.702 19.9077 39.283 19.3062 39.9691 18.7281C40.3113 18.4459 40.681 18.1698 41.0905 17.921C41.5061 17.6527 41.945 17.4427 42.4855 17.2803Z" fill="url(#paint0_linear_466_20454)"></path><path fill-rule="evenodd" clip-rule="evenodd" d="M42.4856 17.2803C41.6708 15.2248 40.1565 13.4946 38.1239 12.2178C36.1037 10.955 33.2976 10.3106 30.5172 10.8599C29.1435 11.1256 27.8127 11.6371 26.6448 12.3182C25.4822 12.9966 24.4404 13.8133 23.5386 14.6894C23.0883 15.1289 22.6797 15.5874 22.2737 16.0485L21.2214 17.3901L19.5961 19.5498C17.5241 22.3284 15.2928 25.5848 11.6313 26.5498C8.03661 27.497 6.47755 26.6581 4.28364 26.3115C4.68479 27.3472 5.1817 28.353 5.85535 29.2378C6.51644 30.1405 7.29729 30.9885 8.26812 31.7152C8.75873 32.0643 9.2767 32.4088 9.85198 32.701C10.4246 32.9833 11.0422 33.2318 11.7014 33.4188C13.0126 33.7782 14.4888 33.9041 15.918 33.7108C17.348 33.52 18.7148 33.0668 19.9095 32.465C21.113 31.8688 22.1614 31.1427 23.0976 30.3765C24.9585 28.8311 26.406 27.1236 27.6287 25.3975C28.2437 24.5346 28.8019 23.6553 29.3182 22.7758L29.9259 21.7287C30.1117 21.4227 30.2996 21.1147 30.4904 20.8279C31.2604 19.6756 32.0135 18.7517 32.9283 18.0582C33.8304 17.3468 35.0864 16.8211 36.7649 16.699C38.4365 16.5754 40.3662 16.8037 42.4856 17.2803Z" fill="#FAFAFA"></path><path fill-rule="evenodd" clip-rule="evenodd" d="M33.4423 34.3586C33.4423 35.8683 34.6668 37.0927 36.1765 37.0927C37.6862 37.0927 38.9092 35.8683 38.9092 34.3586C38.9092 32.8489 37.6862 31.6244 36.1765 31.6244C34.6668 31.6244 33.4423 32.8489 33.4423 34.3586Z" fill="url(#paint1_linear_466_20454)"></path><g clip-path="url(#clip0_466_20454)"><path d="M167.425 8.56049H161.864L161.624 8.8408C160.916 9.65948 160.031 10.6339 158.985 11.7329C157.962 12.8096 156.854 13.9664 155.684 15.1589C154.531 16.3379 153.334 17.5526 152.129 18.7584C151.457 19.4124 150.812 20.0398 150.198 20.6271V8.56049H145.152C144.747 8.56049 144.418 8.88974 144.418 9.29463V39.2076C144.418 39.6125 144.747 39.9417 145.152 39.9417H150.198V26.5047C150.972 27.0475 151.768 27.6571 152.565 28.3289L152.578 28.3378C153.837 29.3745 155.083 30.5224 156.284 31.7505V31.7594L156.302 31.7683C157.521 32.9607 158.696 34.2465 159.782 35.5814L159.79 35.5947L159.817 35.6214C160.903 36.934 161.877 38.2599 162.714 39.568L162.949 39.9417H168.413C168.68 39.9417 168.916 39.8038 169.05 39.5769C169.183 39.3455 169.183 39.0741 169.05 38.8427L168.987 38.7359C168.2 37.3611 167.194 35.9017 166.002 34.3889C164.849 32.8939 163.595 31.399 162.264 29.9574C160.938 28.5158 159.564 27.1409 158.18 25.8729C157.072 24.8584 156 23.9597 154.976 23.1988C155.835 22.3579 156.747 21.4547 157.69 20.5114C158.892 19.3101 160.106 18.0776 161.303 16.8541C162.522 15.6038 163.71 14.3758 164.823 13.2056L164.836 13.1878C165.944 11.9909 166.958 10.8919 167.844 9.91754L167.955 9.79741C168.151 9.58384 168.204 9.27238 168.084 9.00542C167.968 8.73846 167.701 8.56494 167.412 8.56494L167.425 8.56049Z" fill="#0C0C4F"></path><path d="M121.597 8.33357H117.095C116.69 8.33357 116.36 8.66282 116.36 9.06771V39.2254C116.36 39.6303 116.69 39.9595 117.095 39.9595H121.686V28.8717H127.088C127.711 29.6281 128.334 30.4246 128.93 31.2477V31.2566L128.943 31.2655C129.984 32.6314 130.963 34.0775 131.849 35.568C132.654 36.8895 133.361 38.2065 133.962 39.4923L134.06 39.7014L134.18 39.9595H139.368C139.617 39.9595 139.848 39.8349 139.986 39.6214C140.12 39.4122 140.142 39.1497 140.035 38.9228C139.43 37.5969 138.816 36.3956 138.162 35.261C137.241 33.6147 136.213 31.9551 135.11 30.3356C134.598 29.5836 134.069 28.8406 133.535 28.1198C135.186 27.5013 136.516 26.4913 137.499 25.1165C138.803 23.2745 139.461 21.0854 139.461 18.6027C139.461 16.903 139.159 15.3324 138.563 13.9308C137.957 12.4893 137.032 11.279 135.813 10.3358C134.612 9.39252 133.117 8.77851 131.359 8.5071C130.963 8.43591 130.536 8.38696 130.1 8.37362C129.7 8.34692 129.33 8.32912 129.023 8.32912H121.593L121.597 8.33357ZM128.903 13.4726C129.143 13.4726 129.424 13.4859 129.731 13.5126H129.757C130.051 13.526 130.318 13.566 130.563 13.6327H130.576L130.598 13.6416C131.413 13.8196 132.044 14.14 132.529 14.6249L132.543 14.6427L132.556 14.6561C133.054 15.15 133.415 15.7106 133.655 16.3646V16.3913L133.691 16.4625C133.931 17.1566 134.055 17.8819 134.055 18.6116C134.055 19.3412 133.931 20.0887 133.682 20.8051C133.446 21.4725 133.068 22.0687 132.547 22.5759C132.062 23.052 131.404 23.3902 130.594 23.577C130.327 23.6393 130.038 23.6794 129.731 23.7061C129.419 23.7327 129.139 23.7461 128.899 23.7461H121.682V13.4726H128.903Z" fill="#0C0C4F"></path><path d="M111.755 8.56049H88.7166C88.3117 8.56049 87.9825 8.88974 87.9825 9.29463V13.784H97.3439V39.2076C97.3439 39.6125 97.6731 39.9417 98.078 39.9417H102.389C102.794 39.9417 103.124 39.6125 103.124 39.2076V13.784H112.485V9.29908C112.485 8.89419 112.156 8.56494 111.751 8.56494L111.755 8.56049Z" fill="#0C0C4F"></path><path d="M72.7123 7.29688C70.6389 7.29688 68.7435 7.65282 67.0706 8.35582C65.3309 9.08996 63.9249 10.1712 62.8971 11.5682C61.8648 12.9787 61.3398 14.6917 61.3398 16.6716C61.3398 17.9086 61.5489 19.012 61.9583 19.9464C62.3676 20.8629 62.9282 21.6638 63.6223 22.3268C64.3031 22.963 65.0817 23.5014 65.9404 23.9285C66.7769 24.3334 67.6445 24.6671 68.53 24.9341L76.3163 27.2477C76.8324 27.3946 77.3263 27.577 77.7935 27.7994C78.2295 28.0041 78.6211 28.2622 78.9592 28.5603H78.9637L78.9815 28.5781C79.3018 28.8406 79.5421 29.1565 79.7156 29.5436L79.7245 29.5658C79.9069 29.9307 80.0004 30.3979 80.0004 30.9451C80.0004 31.8661 79.7378 32.6359 79.2039 33.2988C78.6478 33.9885 77.8647 34.5358 76.8858 34.9184C75.8847 35.3055 74.7323 35.5013 73.4687 35.5013C71.5244 35.5013 69.8158 35.0074 68.392 34.033C66.9905 33.0541 66.0917 31.7238 65.6423 29.9796C65.5489 29.6237 65.2285 29.3745 64.8592 29.3745C64.8192 29.3745 64.7747 29.3745 64.7347 29.3834L60.8326 29.9974C60.619 30.033 60.4233 30.1532 60.2987 30.3267C60.1741 30.5047 60.1251 30.7271 60.1607 30.9407C60.5211 32.934 61.3131 34.6915 62.5144 36.1642C63.7291 37.6236 65.273 38.7537 67.1062 39.5368C68.9393 40.311 71.0127 40.7025 73.2774 40.7025C74.9326 40.7025 76.5076 40.4845 77.9581 40.0529C79.4264 39.6347 80.7345 39.0073 81.8557 38.1931C83.0037 37.3388 83.9024 36.2754 84.5387 35.0207C85.1883 33.7705 85.5175 32.3244 85.5175 30.7316C85.5175 29.1387 85.2105 27.7683 84.6099 26.6916C84.0181 25.6148 83.2528 24.7428 82.3363 24.0931C81.4642 23.4613 80.5432 22.963 79.6044 22.616C78.7278 22.2867 77.9314 22.0198 77.2507 21.8329L71.4443 20.1599C70.7235 19.9553 69.976 19.6972 69.2196 19.3857C68.5566 19.0965 67.9827 18.7005 67.5244 18.22C67.1329 17.7973 66.9371 17.2323 66.9371 16.507C66.9371 15.7818 67.1685 15.0966 67.6445 14.5182C68.1518 13.8864 68.8503 13.3925 69.7224 13.0365C70.59 12.6806 71.5822 12.5026 72.6634 12.5026H72.7791C73.9626 12.516 75.0571 12.7473 76.036 13.1923C77.006 13.6194 77.8157 14.2423 78.452 15.0387C79.1016 15.8263 79.5198 16.774 79.7067 17.873C79.7423 18.0865 79.8624 18.2734 80.036 18.398C80.1739 18.4959 80.3341 18.5448 80.5031 18.5448C80.5476 18.5448 80.5966 18.5448 80.6411 18.5315L84.6499 17.8329C84.8635 17.7973 85.0548 17.6727 85.1749 17.4948C85.2951 17.3168 85.344 17.0943 85.2995 16.8808C84.908 14.9097 84.1249 13.1834 82.9725 11.7596C81.8379 10.3358 80.3786 9.22789 78.6389 8.4715C76.9481 7.70621 74.9948 7.31022 72.8414 7.29688H72.7123Z" fill="#0C0C4F"></path></g><defs><linearGradient id="paint0_linear_466_20454" x1="42.2811" y1="16.5591" x2="-20.15" y2="49.0408" gradientUnits="userSpaceOnUse"><stop stop-color="#EC796B"></stop><stop offset="1" stop-color="#D672EF"></stop></linearGradient><linearGradient id="paint1_linear_466_20454" x1="38.9072" y1="32.4405" x2="28.9439" y2="33.3745" gradientUnits="userSpaceOnUse"><stop stop-color="#EC796B"></stop><stop offset="1" stop-color="#D672EF"></stop></linearGradient><clipPath id="clip0_466_20454"><rect width="109" height="33.4057" fill="white" transform="translate(60.1519 7.29688)"></rect></clipPath></defs></svg>
