<svg fill="none" width="152" height="152" viewBox="0 0 152 152" class="css-os5sxc"><path fill="#00bf89" d="M76,2A74,74,0,1,1,2,76,74.09,74.09,0,0,1,76,2m0-2a76,76,0,1,0,76,76A76,76,0,0,0,76,0Z"></path><path fill="#00bf89" d="M76,19.38A56.63,56.63,0,1,1,19.38,76,56.68,56.68,0,0,1,76,19.38m0-2A58.63,58.63,0,1,0,134.62,76,58.61,58.61,0,0,0,76,17.38Z"></path><path fill="#00bf89" d="M100,76A24,24,0,1,1,76,52,24,24,0,0,1,100,76Z"></path><path fill="#00bf89" d="M76,37.55A38.45,38.45,0,1,1,37.55,76,38.5,38.5,0,0,1,76,37.55m0-2A40.45,40.45,0,1,0,116.45,76,40.45,40.45,0,0,0,76,35.55Z"></path></svg>
