<svg fill="none" width="152" height="152" viewBox="0 0 152 152" class="css-os5sxc"><path fill="#3f27ff" d="M148,100.28a76,76,0,0,0-27.7-86l-.46-.33h0a76,76,0,0,0-87.72,0h0l-.44.32A76,76,0,0,0,4,100.32l0,.12H4A75.94,75.94,0,0,0,75,152v0h2v0a75.94,75.94,0,0,0,71-51.53h0ZM150,76a74.26,74.26,0,0,1-3.29,21.92l-14.64-4.75a58.75,58.75,0,0,0-20.8-64l9-12.45a75.16,75.16,0,0,1,8,7A73.53,73.53,0,0,1,150,76ZM22.48,94.44l15.36-5,1.92-.62c-.22-.63-.43-1.26-.62-1.91A38.37,38.37,0,0,1,52.61,45.51L61.1,57.19A24,24,0,0,0,75,100V132.6A56.71,56.71,0,0,1,22.48,94.44Zm54.52,20V100A24,24,0,0,0,98.5,84.36l13.74,4.47A38.52,38.52,0,0,1,77,114.43ZM76,52a24,24,0,0,0-13.29,4L54.23,44.33a38.34,38.34,0,0,1,43.54,0L89.29,56A24,24,0,0,0,76,52Zm0-16.45a40.28,40.28,0,0,0-23,7.14l-9.49-13a56.45,56.45,0,0,1,64.9,0L99,42.69A40.28,40.28,0,0,0,76,35.55Zm38.77,52-1.91-.63L99.12,82.46A24,24,0,0,0,90.9,57.19l8.49-11.68,1.19-1.64,9.49-13.06a56.57,56.57,0,0,1,20.08,61.73ZM23.66,23.66a74.19,74.19,0,0,1,8-6.95l9,12.45a58.75,58.75,0,0,0-20.8,64L5.29,97.92A74.23,74.23,0,0,1,23.66,23.66ZM128.34,128.34A73.52,73.52,0,0,1,77,150V134.6a58.59,58.59,0,0,0,54.44-39.53l14.65,4.75A73.75,73.75,0,0,1,128.34,128.34Z"></path></svg>
